<svg width="25" height="23" viewBox="0 0 25 23" fill="none" xmlns="http://www.w3.org/2000/svg">
<path d="M14.5021 19.1457L12.4464 20.9322L9.33271 18.2263H4.92874V14.3992L1.81506 11.6933L4.92874 8.98748V5.16033H9.33271L12.4464 2.45447L15.5601 5.16033H19.964V8.98748L23.0777 11.6933L21.5162 13.0503" stroke="#B8BBF0" stroke-linecap="round" stroke-linejoin="round"/>
<path d="M15.4585 17.4458C15.0204 16.781 14.8468 16.0093 14.9645 15.2501C15.0823 14.4909 15.4848 13.7866 16.1097 13.2463C16.7347 12.7061 17.5472 12.36 18.4214 12.2616C19.2956 12.1633 20.1827 12.3182 20.9454 12.7023C21.708 13.0865 22.3037 13.6785 22.64 14.3866C22.9763 15.0947 23.0345 15.8794 22.8057 16.6192C22.5769 17.359 22.0737 18.0126 21.3742 18.4787C20.6746 18.9448 19.8177 19.1975 18.9362 19.1975L12.6933 19.1241C12.0557 19.1241 11.4441 18.904 10.9932 18.5121C10.5424 18.1203 10.2891 17.5889 10.2891 17.0348C10.2891 16.4806 10.5424 15.9492 10.9932 15.5574C11.4441 15.1655 12.0557 14.9454 12.6933 14.9454L15.0301 14.9391" stroke="#B8BBF0" stroke-linecap="round" stroke-linejoin="round"/>
</svg>
