<svg width="13" height="17" viewBox="0 0 13 17" fill="none" xmlns="http://www.w3.org/2000/svg">
<g clip-path="url(#clip0_5_292)">
<path d="M9.96735 2.68996C9.43865 2.68996 8.9316 2.94895 8.55775 3.40996C8.18391 3.87097 7.97388 4.49623 7.97388 5.1482C7.97388 5.27859 7.93187 5.40364 7.85711 5.49584C7.78234 5.58805 7.68093 5.63984 7.57519 5.63984C7.46945 5.63984 7.36804 5.58805 7.29327 5.49584C7.2185 5.40364 7.17649 5.27859 7.17649 5.1482C7.17649 4.46753 7.34017 3.80214 7.64684 3.23619C7.9535 2.67023 8.38937 2.22912 8.89933 1.96864C9.4093 1.70816 9.97045 1.64 10.5118 1.77279C11.0532 1.90559 11.5505 2.23336 11.9408 2.71467C12.3311 3.19597 12.5969 3.8092 12.7046 4.47679C12.8123 5.14438 12.757 5.83636 12.5458 6.46521C12.3345 7.09407 11.9768 7.63157 11.5179 8.00973C11.0589 8.38789 10.5193 8.58973 9.96735 8.58973H0.398694C0.292954 8.58973 0.191544 8.53793 0.116775 8.44573C0.0420051 8.35353 0 8.22847 0 8.09808C0 7.96769 0.0420051 7.84264 0.116775 7.75043C0.191544 7.65823 0.292954 7.60643 0.398694 7.60643H9.96735C10.4961 7.60643 11.0031 7.34744 11.3769 6.88643C11.7508 6.42542 11.9608 5.80016 11.9608 5.1482C11.9608 4.49623 11.7508 3.87097 11.3769 3.40996C11.0031 2.94895 10.4961 2.68996 9.96735 2.68996ZM4.38563 3.67326C4.17415 3.67326 3.97133 3.77685 3.8218 3.96126C3.67226 4.14566 3.58825 4.39576 3.58825 4.65655C3.58825 4.78694 3.54624 4.912 3.47147 5.0042C3.3967 5.0964 3.29529 5.1482 3.18955 5.1482C3.08381 5.1482 2.9824 5.0964 2.90763 5.0042C2.83286 4.912 2.79086 4.78694 2.79086 4.65655C2.79086 4.2676 2.88439 3.88738 3.05963 3.56397C3.23486 3.24057 3.48393 2.98851 3.77534 2.83966C4.06675 2.69081 4.3874 2.65187 4.69676 2.72775C5.00612 2.80363 5.29028 2.99093 5.51331 3.26596C5.73634 3.54099 5.88823 3.89141 5.94977 4.27289C6.0113 4.65437 5.97972 5.04978 5.85901 5.40913C5.73831 5.76848 5.5339 6.07562 5.27164 6.29171C5.00938 6.5078 4.70105 6.62314 4.38563 6.62314H0.398694C0.292954 6.62314 0.191544 6.57134 0.116775 6.47914C0.0420051 6.38694 0 6.26188 0 6.13149C0 6.0011 0.0420051 5.87605 0.116775 5.78384C0.191544 5.69164 0.292954 5.63984 0.398694 5.63984H4.38563C4.59711 5.63984 4.79993 5.53625 4.94947 5.35184C5.09901 5.16744 5.18302 4.91734 5.18302 4.65655C5.18302 4.39576 5.09901 4.14566 4.94947 3.96126C4.79993 3.77685 4.59711 3.67326 4.38563 3.67326ZM0 10.0647C0 9.93428 0.0420051 9.80922 0.116775 9.71702C0.191544 9.62482 0.292954 9.57302 0.398694 9.57302H8.40606C8.87919 9.57302 9.34169 9.74603 9.73508 10.0702C10.1285 10.3943 10.4351 10.855 10.6161 11.394C10.7972 11.9331 10.8446 12.5262 10.7523 13.0984C10.66 13.6706 10.4321 14.1962 10.0976 14.6088C9.76303 15.0213 9.33679 15.3023 8.87275 15.4161C8.40872 15.5299 7.92773 15.4715 7.49062 15.2482C7.05351 15.025 6.67991 14.6469 6.41705 14.1618C6.1542 13.6767 6.0139 13.1063 6.0139 12.5229C6.0139 12.3925 6.0559 12.2675 6.13067 12.1753C6.20544 12.0831 6.30685 12.0313 6.41259 12.0313C6.51833 12.0313 6.61974 12.0831 6.69451 12.1753C6.76928 12.2675 6.81129 12.3925 6.81129 12.5229C6.81129 12.9119 6.90482 13.2921 7.08006 13.6155C7.25529 13.9389 7.50436 14.191 7.79577 14.3398C8.08718 14.4886 8.40783 14.5276 8.71719 14.4517C9.02655 14.3758 9.31071 14.1885 9.53374 13.9135C9.75677 13.6385 9.90866 13.288 9.9702 12.9066C10.0317 12.5251 10.0001 12.1297 9.87945 11.7703C9.75874 11.411 9.55433 11.1038 9.29207 10.8877C9.02981 10.6717 8.72148 10.5563 8.40606 10.5563H0.398694C0.292954 10.5563 0.191544 10.5045 0.116775 10.4123C0.0420051 10.3201 0 10.1951 0 10.0647Z" fill="white"/>
</g>
<defs>
<clipPath id="clip0_5_292">
<rect width="12.7582" height="15.7327" fill="white" transform="translate(0 0.723389)"/>
</clipPath>
</defs>
</svg>
